<svg xmlns="http://www.w3.org/2000/svg" xmlns:xlink="http://www.w3.org/1999/xlink">
    <defs>
        <svg id="folder" xmlns="http://www.w3.org/2000/svg" viewBox="0 0 32 32">
            <path fill="#ABABAB" d="M28.8 6.9H16.1V5.7c0-1.4-1.1-2.5-2.5-2.5H.6v25.6h30.6V9.4c.1-1.4-1-2.5-2.4-2.5z" />
        </svg>
        <svg id="html" xmlns="http://www.w3.org/2000/svg" viewBox="0 0 32 32">
            <path fill="#EF7623" d="M8 15l6-5.6V12l-4.5 4 4.5 4v2.6L8 17v-2zm16 2.1l-6 5.6V20l4.6-4-4.6-4V9.3l6 5.6v2.2z" />
        </svg>
        <svg id="json" xmlns="http://www.w3.org/2000/svg" viewBox="0 0 32 32">
            <path fill="#DBCD68" d="M7.5 15.1c1.5 0 1.7-.8 1.7-1.5 0-.6-.1-1.1-.1-1.7S9 10.7 9 10.2c0-2.1 1.3-3 3.4-3h.8v1.9h-.4c-1 0-1.3.6-1.3 1.6 0 .4.1.8.1 1.3 0 .4.1.9.1 1.5 0 1.7-.7 2.3-1.9 2.6 1.2.3 1.9.9 1.9 2.6 0 .6-.1 1.1-.1 1.5 0 .4-.1.9-.1 1.2 0 1 .3 1.6 1.3 1.6h.4v1.9h-.8c-2 0-3.3-.8-3.3-3 0-.6 0-1.1.1-1.7.1-.6.1-1.2.1-1.7 0-.6-.2-1.5-1.7-1.5l-.1-1.9zm17 1.7c-1.5 0-1.7.9-1.7 1.5s.1 1.1.1 1.7c.1.6.1 1.2.1 1.7 0 2.2-1.4 3-3.4 3h-.8V23h.4c1 0 1.3-.6 1.3-1.6 0-.4 0-.8-.1-1.2 0-.5-.1-1-.1-1.5 0-1.7.7-2.3 1.9-2.6-1.2-.3-1.9-.9-1.9-2.6 0-.6.1-1.1.1-1.5.1-.5.1-.9.1-1.3 0-1-.4-1.5-1.3-1.6h-.4V7.2h.8c2.1 0 3.4.9 3.4 3 0 .6-.1 1.1-.1 1.7-.1.6-.1 1.2-.1 1.7 0 .7.2 1.5 1.7 1.5v1.7z" />
        </svg>
        <svg id="sass" xmlns="http://www.w3.org/2000/svg" viewBox="0 0 32 32">
            <path fill="#CF6499" d="M18 17.3c-1.1.7-2.4 1.5-3.5 2.2.4.9.4 1.8.1 2.7-.5 1.6-1.7 2.5-3.2 2.7-.4.1-.8 0-1.1-.1-.4-.1-.6-.4-.7-.7-.4-.9-.3-1.7.3-2.4.4-.4.8-.9 1.3-1.2.5-.4 1.2-.7 1.8-1.1.1-.1.2-.1.4-.2-.3-.2-.4-.4-.6-.4-.8-.5-1.6-1.1-2.3-1.8-.4-.4-.8-.8-1.1-1.3-.9-.7-1-1.7-.5-2.6.4-1 1.1-1.8 1.8-2.5 1.6-1.4 3.4-2.4 5.4-3.1 1.4-.5 2.8-.7 4.2-.5.4.2 1 .3 1.4.5 1.5.6 2.1 1.8 1.6 3.4-.4 1.3-1.2 2.4-2.4 3.1-1.6 1-3.2 1.4-5.1 1.1-.6-.1-1.1-.4-1.6-.9-.1-.2-.2-.4-.3-.5 0 0 0-.1.1-.2 0 0 .1 0 .2.1.8.8 1.7.9 2.6.7 1.7-.3 3.2-.9 4.3-2.2.4-.5.8-1.1 1-1.8.2-.8-.2-1.4-.9-1.8-.8-.4-1.6-.4-2.4-.3-2 .3-3.8 1.1-5.4 2.1-.9.5-1.7 1.1-2.3 1.9-.3.4-.5.8-.7 1.2-.3.8-.2 1.6.4 2.2.4.4.8.8 1.2 1.1.6.5 1.3 1.1 1.9 1.6.1 0 .2.1.3 0 .3-.2.5-.3.8-.4.9-.5 1.8-.9 2.8-1.1 0 .4.1.4.2.5 0-.1 0-.1 0 0zm-4.3 2.5c-.9.5-1.6 1-2.3 1.7-.4.4-.6.8-.7 1.3-.1.6.3.9.9.8.8-.2 1.4-.7 1.8-1.3.5-.8.5-1.5.3-2.5z" />
        </svg>
        <svg id="typescript" xmlns="http://www.w3.org/2000/svg" viewBox="0 0 32 32">
            <path d="M15.6 11.8h-3.4V22H9.7V11.8H6.3V10h9.2v1.8zm7.7 7.1c0-.5-.2-.8-.5-1.1-.3-.3-.9-.5-1.7-.8-1.4-.4-2.5-.9-3.3-1.5-.7-.6-1.1-1.3-1.1-2.3 0-1 .4-1.8 1.3-2.4.8-.6 1.9-.9 3.2-.9 1.3 0 2.4.4 3.2 1.1.8.7 1.2 1.6 1.2 2.6h-2.3c0-.6-.2-1-.6-1.4-.4-.3-.9-.5-1.6-.5-.6 0-1.1.1-1.5.4-.4.3-.5.7-.5 1.1 0 .4.2.7.6 1 .4.3 1 .5 2 .8 1.3.4 2.3.9 3 1.5.7.6 1 1.4 1 2.4s-.4 1.9-1.2 2.4c-.8.6-1.9.9-3.2.9-1.3 0-2.5-.3-3.4-1s-1.5-1.6-1.4-2.9h2.4c0 .7.2 1.2.7 1.6.4.3 1.1.5 1.8.5s1.2-.1 1.5-.4c.2-.3.4-.7.4-1.1z" fill="#529BBA" />
        </svg>
    </defs>
</svg>